<?xml version="1.0" encoding="UTF-8" ?>
<!DOCTYPE svg PUBLIC "-//W3C//DTD SVG 1.1//EN" "http://www.w3.org/Graphics/SVG/1.1/DTD/svg11.dtd">
<svg width="100pt" height="100pt" viewBox="0 0 100 100" version="1.1" xmlns="http://www.w3.org/2000/svg">
<g id="#f86161ff">
<path fill="#f86161" opacity="1.00" d=" M 47.53 0.00 L 52.37 0.00 C 64.64 0.69 76.64 5.85 85.30 14.61 C 94.07 23.24 99.28 35.20 100.00 47.46 L 100.00 53.00 C 99.12 65.28 93.80 77.25 84.89 85.81 C 76.28 94.30 64.51 99.32 52.47 100.00 L 47.60 100.00 C 34.61 99.31 21.96 93.48 13.20 83.84 C 5.44 75.53 0.92 64.51 0.00 53.23 L 0.00 47.56 C 0.69 35.29 5.89 23.31 14.65 14.65 C 23.30 5.89 35.28 0.72 47.53 0.00 M 48.15 24.14 C 46.66 24.88 47.10 26.63 46.98 27.98 C 47.06 39.00 46.91 50.02 47.06 61.04 C 47.15 63.72 51.51 63.64 52.84 61.95 C 53.23 50.98 52.86 39.98 53.02 28.99 C 52.80 27.38 53.59 25.19 51.91 24.17 C 50.66 23.91 49.41 23.90 48.15 24.14 M 48.16 69.13 C 46.45 70.11 46.99 72.33 47.17 73.94 C 48.75 76.03 53.82 75.40 53.03 72.04 C 53.73 69.01 50.31 68.52 48.16 69.13 Z" />
</g>
<g id="#ffffffff">
<path fill="#ffffff" opacity="1.00" d=" M 48.15 24.14 C 49.41 23.90 50.66 23.91 51.91 24.17 C 53.59 25.19 52.80 27.38 53.02 28.99 C 52.86 39.98 53.23 50.98 52.84 61.95 C 51.51 63.64 47.15 63.72 47.06 61.04 C 46.91 50.02 47.06 39.00 46.98 27.98 C 47.10 26.63 46.66 24.88 48.15 24.14 Z" />
<path fill="#ffffff" opacity="1.00" d=" M 48.16 69.13 C 50.31 68.52 53.73 69.01 53.03 72.04 C 53.82 75.40 48.75 76.03 47.17 73.94 C 46.99 72.33 46.45 70.11 48.16 69.13 Z" />
</g>
</svg>
